Coordinates
version=1
nRows=10
nColumns=40
inDegrees=yes

Units are S.I. units (second, meters, Newtons, ...)
Angles are in degrees.

endheader
time	pelvis_tilt	pelvis_list	pelvis_rotation	pelvis_tx	pelvis_ty	pelvis_tz	hip_flexion_r	hip_adduction_r	hip_rotation_r	knee_angle_r	knee_angle_r_beta	ankle_angle_r	subtalar_angle_r	mtp_angle_r	hip_flexion_l	hip_adduction_l	hip_rotation_l	knee_angle_l	knee_angle_l_beta	ankle_angle_l	subtalar_angle_l	mtp_angle_l	lumbar_extension	lumbar_bending	lumbar_rotation	arm_flex_r	arm_add_r	arm_rot_r	elbow_flex_r	pro_sup_r	wrist_flex_r	wrist_dev_r	arm_flex_l	arm_add_l	arm_rot_l	elbow_flex_l	pro_sup_l	wrist_flex_l	wrist_dev_l
      0.49000000	     -1.53222078	     -5.82529707	     -1.24880633	      1.09667878	      0.93562153	      0.41085559	     26.53115496	     -4.53292516	     -4.74778031	     58.19467035	     58.19467035	      3.26158833	    -12.69253905	     -0.09669867	     15.64183999	     -7.14465153	     -8.74944219	     23.67595676	     23.67595676	     11.58711032	    -12.99306036	     -0.84919993	    -11.19574271	      6.13385000	      1.83156022	      2.70788779	    -13.49325670	     -4.40862058	     31.16950163	     45.06786938	      0.00000000	      0.00000000	     14.33282532	    -16.58558549	      6.48883539	     43.45220177	     45.12023922	      0.00000000	      0.00000000
      0.50400000	     -1.60728576	     -5.89906282	     -1.75977478	      1.09536119	      0.93645492	      0.41068339	     27.24058242	     -4.30903994	     -4.86308161	     55.47735736	     55.47735736	      3.26402629	    -12.15292947	     -0.45288071	     14.94501138	     -7.18838386	     -9.10361672	     23.02851997	     23.02851997	     11.63884370	    -13.09365440	     -0.89443661	    -11.29006775	      6.22300956	      1.90072468	      1.22014373	    -13.42080295	     -4.28500880	     30.26063970	     45.10841927	      0.00000000	      0.00000000	     15.40596611	    -16.91054297	      6.21479585	     44.36179411	     45.19065443	      0.00000000	      0.00000000
      0.51800000	     -1.70015719	     -6.00626203	     -2.26087975	      1.09401393	      0.93713767	      0.41057357	     27.77752252	     -3.98117929	     -5.00688932	     52.40830385	     52.40830385	      3.16957927	    -11.53084473	     -0.59621559	     14.35880759	     -7.30030580	     -9.50472229	     22.54581411	     22.54581411	     11.74308429	    -13.12115642	     -0.96882940	    -11.36380063	      6.37060647	      1.77445638	     -0.21488628	    -13.35494355	     -4.26458586	     29.62015534	     45.13573522	      0.00000000	      0.00000000	     16.29655524	    -17.43401764	      5.91155925	     45.28927379	     45.25087050	      0.00000000	      0.00000000
      0.53200000	     -1.67906143	     -6.07724142	     -2.79129188	      1.09280884	      0.93787863	      0.41056636	     27.98384422	     -3.66956594	     -5.21424552	     48.98635395	     48.98635395	      2.84065938	    -10.74270318	     -1.20906348	     13.56676799	     -7.36369536	    -10.01591105	     21.93905827	     21.93905827	     11.81829426	    -13.13250054	     -1.24840001	    -11.60349558	      6.40461111	      2.01435770	     -1.78767984	    -13.31808950	     -4.33695726	     28.90521505	     45.18284721	      0.00000000	      0.00000000	     17.17098155	    -17.83756497	      5.45979153	     47.05589414	     45.34412434	      0.00000000	      0.00000000
      0.54600000	     -1.85115696	     -6.10275643	     -3.26109615	      1.09151176	      0.93821616	      0.41057239	     28.25289716	     -3.38428630	     -5.48717044	     45.31239313	     45.31239313	      2.39626091	     -9.67869736	     -1.55557016	     13.10231735	     -7.39212364	    -10.41225158	     21.49072299	     21.49072299	     11.83749152	    -13.11955937	     -1.54689293	    -11.59737779	      6.47409569	      1.77189162	     -3.10142299	    -13.18392469	     -4.48698286	     28.46049732	     45.22451293	      0.00000000	      0.00000000	     17.78216412	    -18.47062556	      5.01648524	     48.43283315	     45.42794970	      0.00000000	      0.00000000
      0.56000000	     -1.99068966	     -6.13044781	     -3.71330143	      1.09030657	      0.93847232	      0.41064359	     28.32376657	     -3.08804368	     -5.90981166	     41.37848038	     41.37848038	      1.95843626	     -8.28393374	     -1.42458086	     12.62640028	     -7.41866924	    -10.81069810	     21.09319581	     21.09319581	     11.94796258	    -13.11930275	     -1.73597092	    -11.60556505	      6.52631480	      1.60508238	     -4.32568556	    -13.17958352	     -4.59676598	     28.04573682	     45.25388853	      0.00000000	      0.00000000	     18.47109298	    -18.94777463	      4.64696040	     49.53661039	     45.49256532	      0.00000000	      0.00000000
      0.57400000	     -2.15380250	     -6.10755455	     -4.15053754	      1.08918523	      0.93855201	      0.41084134	     28.27069853	     -2.80963629	     -6.40099799	     37.23221590	     37.23221590	      1.47289031	     -6.50873646	     -1.20108829	     12.18388245	     -7.39834943	    -11.21239923	     20.69918379	     20.69918379	     12.06513798	    -13.07903635	     -1.94030025	    -11.57111030	      6.50464151	      1.51875974	     -5.53139799	    -13.13382098	     -4.71025098	     27.69315429	     45.27904775	      0.00000000	      0.00000000	     19.18186568	    -19.39998137	      4.25554120	     50.70570516	     45.55732855	      0.00000000	      0.00000000
      0.58800000	     -2.32010446	     -6.04579264	     -4.57023771	      1.08813592	      0.93851413	      0.41116403	     28.05707089	     -2.55002122	     -7.04414974	     32.86187136	     32.86187136	      0.90024966	     -4.31250187	     -0.97042016	     11.75442644	     -7.34444423	    -11.63650346	     20.30964928	     20.30964928	     12.16260226	    -13.03690650	     -2.19257394	    -11.55164703	      6.44072415	      1.50956407	     -6.66814525	    -13.05121569	     -4.85697381	     27.44831360	     45.30288479	      0.00000000	      0.00000000	     19.85272985	    -19.82826157	      3.81527834	     52.01189397	     45.62758263	      0.00000000	      0.00000000
      0.60200000	     -2.41875740	     -5.85145786	     -4.98599469	      1.08723397	      0.93835623	      0.41153671	     27.64932418	     -2.44878880	     -7.93319416	     28.37240931	     28.37240931	      0.17889809	     -1.43447716	     -1.13868466	     11.24346474	     -7.14477987	    -12.12297867	     19.90994289	     19.90994289	     12.17497920	    -12.97181943	     -2.68402940	    -11.60590301	      6.21849529	      1.52817788	     -7.75183434	    -12.88558901	     -5.18439969	     27.48721979	     45.33782352	      0.00000000	      0.00000000	     20.35723832	    -20.26059133	      3.12514525	     53.92358317	     45.73454849	      0.00000000	      0.00000000
      0.61600000	     -2.65411366	     -5.72951871	     -5.33106518	      1.08636017	      0.93790403	      0.41210809	     27.22824908	     -2.10346448	     -8.68303700	     23.77848669	     23.77848669	     -0.58511487	      1.04503698	     -0.57759426	     10.95503528	     -7.03277153	    -12.42534934	     19.61047529	     19.61047529	     12.25348999	    -12.99801730	     -2.99268020	    -11.44934367	      6.10266758	      1.41005832	     -8.65793654	    -12.79931533	     -5.37388205	     27.42897452	     45.35776381	      0.00000000	      0.00000000	     20.88646438	    -20.63719081	      2.67662663	     55.03614883	     45.80276785	      0.00000000	      0.00000000
